<svg width="39" height="29" viewBox="0 0 39 29" fill="none" xmlns="http://www.w3.org/2000/svg">
<g filter="url(#filter0_d_2_546)">
<path d="M4 2.9995C4 1.96139 4.57503 1.40163 5.7251 1.32021L10.1568 1.35074C10.4542 1.35074 10.6525 1.5034 10.7517 1.80873C11.2077 3.33536 11.7183 4.65335 12.2834 5.76269C12.8486 6.87204 13.5872 8.14932 14.4993 9.59453C14.5786 9.77772 14.7075 9.86932 14.886 9.86932C15.0248 9.86932 15.1338 9.79808 15.2131 9.65559L15.3024 9.31974L15.3321 4.03761C15.3321 3.67122 15.2478 3.42696 15.0793 3.30483C14.9108 3.18269 14.5985 3.0911 14.1424 3.03003C13.7855 2.96897 13.607 2.74506 13.607 2.35832C13.607 2.2769 13.6169 2.21583 13.6368 2.17512C14.0532 0.852044 15.2429 0.190506 17.2059 0.190506L18.8715 0.159973C19.625 0.159973 20.2496 0.353346 20.7454 0.740091C21.2411 1.12684 21.4889 1.73749 21.4889 2.57204V9.50293C21.6277 9.60471 21.7566 9.65559 21.8756 9.65559C22.173 9.65559 22.4308 9.4724 22.6489 9.10601C24.8301 5.97133 26.0099 3.87477 26.1883 2.8163C26.1883 2.79595 26.2082 2.74506 26.2478 2.66364C26.3866 2.35832 26.6147 2.0937 26.9319 1.8698C27.2492 1.64589 27.5268 1.49323 27.7647 1.41181C27.844 1.3711 27.9333 1.35074 28.0324 1.35074H32.6426L32.94 1.38127C33.3366 1.38127 33.6439 1.57465 33.8621 1.96139C33.9414 2.08352 33.9959 2.21583 34.0256 2.35832C34.0554 2.5008 34.0752 2.64329 34.0851 2.78577C34.095 2.92826 34.1 3.00968 34.1 3.03003V3.24376C33.9612 4.07832 33.6092 4.96885 33.0441 5.91536C32.479 6.86187 31.7602 7.88471 30.8877 8.98388C30.0153 10.083 29.47 10.8057 29.2519 11.1517C29.0734 11.3959 28.9842 11.6199 28.9842 11.8234C28.9842 11.9862 29.0635 12.1694 29.2221 12.373L33.5646 17.991C33.8026 18.3167 33.9215 18.6729 33.9215 19.0596C33.9215 19.5278 33.7431 19.9145 33.3862 20.2199C33.0292 20.5252 32.6029 20.6982 32.1072 20.7389L31.6016 20.7694H27.0806C27.0608 20.7694 27.0211 20.7745 26.9617 20.7847C26.9022 20.7949 26.8625 20.8 26.8427 20.8C26.4065 20.8 26 20.6066 25.6232 20.2199C25.4844 20.057 24.5525 18.8561 22.8274 16.617C22.7282 16.4745 22.5894 16.3422 22.411 16.2201C22.3317 16.5458 22.2276 17.0139 22.0987 17.6246C21.9698 18.2352 21.8756 18.6729 21.8161 18.9375L21.7269 19.4565C21.5286 20.169 21.1122 20.5964 20.4777 20.7389L20.0613 20.7694H17.1464C15.5007 20.7694 13.8598 19.9959 12.224 18.449C10.5881 16.902 9.11581 14.9021 7.80711 12.4493C6.49842 9.99654 5.27895 7.14175 4.14872 3.88494C4.04957 3.62033 4 3.32518 4 2.9995ZM21.8756 10.9074C21.4592 10.9074 21.0824 10.7904 20.7454 10.5563C20.4083 10.3222 20.2397 10.0016 20.2397 9.59453V2.57204C20.2397 2.16494 20.1406 1.87488 19.9423 1.70187C19.744 1.52885 19.397 1.44234 18.9013 1.44234L17.2059 1.5034C16.3533 1.5034 15.7089 1.65607 15.2726 1.96139C16.1451 2.38885 16.5813 3.08092 16.5813 4.03761V9.41133C16.5417 9.92021 16.3434 10.3426 15.9865 10.6784C15.6295 11.0143 15.233 11.1822 14.7967 11.1822C14.2019 11.1822 13.7458 10.8871 13.4286 10.2968C11.8819 7.89488 10.7319 5.61512 9.97836 3.45749L9.71067 2.66364L5.75484 2.63311C5.49707 2.63311 5.35331 2.64838 5.32357 2.67891C5.29382 2.70944 5.27895 2.79595 5.27895 2.93843C5.27895 3.12163 5.29878 3.315 5.33844 3.51855L5.96304 5.22838C7.62866 9.64542 9.43803 13.1261 11.3912 15.6705C13.3443 18.2149 15.2627 19.4871 17.1464 19.4871H20.1208C20.2397 19.4871 20.329 19.4515 20.3884 19.3802C20.4479 19.309 20.4975 19.1716 20.5372 18.968L20.5966 18.6627L21.1618 15.9758C21.3204 15.6094 21.4592 15.3652 21.5782 15.243C21.7963 15.0191 22.0541 14.9072 22.3515 14.9072C22.8274 14.9072 23.3132 15.2023 23.8089 15.7926L26.3371 19.0901C26.4957 19.3548 26.6642 19.4871 26.8427 19.4871H31.7503C32.3452 19.4871 32.6426 19.3344 32.6426 19.0291C32.6426 18.9273 32.6128 18.8255 32.5534 18.7238L28.2406 13.1974C27.9035 12.7699 27.735 12.3119 27.735 11.8234C27.735 11.3349 27.8936 10.8667 28.2109 10.4189C28.4686 10.0118 28.9693 9.335 29.7129 8.38849C30.4565 7.44198 31.1059 6.55654 31.6611 5.73216C32.2163 4.90778 32.5831 4.15974 32.7616 3.48802L32.8508 3.0911C32.831 3.05039 32.821 2.98423 32.821 2.89264C32.821 2.80104 32.8111 2.72471 32.7913 2.66364H28.1216C27.8242 2.78577 27.5863 2.96897 27.4078 3.21323L27.2293 3.79335C26.7336 5.19784 25.4348 7.36565 23.333 10.2968C22.9166 10.7039 22.4308 10.9074 21.8756 10.9074Z" fill="#101010"/>
</g>
<defs>
<filter id="filter0_d_2_546" x="0" y="0.159973" width="38.1" height="28.64" filterUnits="userSpaceOnUse" color-interpolation-filters="sRGB">
<feFlood flood-opacity="0" result="BackgroundImageFix"/>
<feColorMatrix in="SourceAlpha" type="matrix" values="0 0 0 0 0 0 0 0 0 0 0 0 0 0 0 0 0 0 127 0" result="hardAlpha"/>
<feOffset dy="4"/>
<feGaussianBlur stdDeviation="2"/>
<feComposite in2="hardAlpha" operator="out"/>
<feColorMatrix type="matrix" values="0 0 0 0 0 0 0 0 0 0 0 0 0 0 0 0 0 0 0.25 0"/>
<feBlend mode="normal" in2="BackgroundImageFix" result="effect1_dropShadow_2_546"/>
<feBlend mode="normal" in="SourceGraphic" in2="effect1_dropShadow_2_546" result="shape"/>
</filter>
</defs>
</svg>
